<?xml version="1.0" encoding="utf-8"?>
<!-- Generator: Adobe Illustrator 24.1.2, SVG Export Plug-In . SVG Version: 6.00 Build 0)  -->
<svg version="1.1" id="controls.fw-Page_x25_201" xmlns="http://www.w3.org/2000/svg" xmlns:xlink="http://www.w3.org/1999/xlink"
	 x="0px" y="0px" viewBox="0 0 144 32" style="enable-background:new 0 0 144 32;" xml:space="preserve" width="144px" height="32px">
<style type="text/css">
	.st0{fill:none;}
	.st1{fill:none;stroke:#132330;stroke-linecap:round;stroke-miterlimit:10;}
	.st2{fill:#1C334A;}
	.st3{fill:#1C334A;stroke:#FFFFFF;stroke-linejoin:round;}
	.st4{fill:url(#Ellipse4_1_);}
	.st5{fill:none;stroke:#1C334A;stroke-linecap:round;stroke-miterlimit:10;}
	.st6{fill:#132330;}
</style>
<path class="st0" d="z"/>
<g id="BG">
</g>
<g id="controls">
	<path id="Line" class="st1" d="M98.5,7.5h11"/>
	<path id="Line2" class="st1" d="M98.5,3.5h11"/>
	<path id="Line3" class="st1" d="M98.5,11.5h11"/>
	<path id="Ellipse" class="st2" d="M107,11.5c0-0.8,0.7-1.5,1.5-1.5s1.5,0.7,1.5,1.5s-0.7,1.5-1.5,1.5S107,12.3,107,11.5z"/>
	<path id="Ellipse2" class="st2" d="M104,7.5c0-0.8,0.7-1.5,1.5-1.5s1.5,0.7,1.5,1.5S106.3,9,105.5,9S104,8.3,104,7.5z"/>
	<path id="Ellipse3" class="st2" d="M107,3.5c0-0.8,0.7-1.5,1.5-1.5s1.5,0.7,1.5,1.5S109.3,5,108.5,5S107,4.3,107,3.5z"/>
</g>
<g id="backlight">
	<g id="off">
		<rect x="83" y="21" class="st3" width="10" height="6"/>
	</g>
	<g id="on">

			<radialGradient id="Ellipse4_1_" cx="-565.9286" cy="363.9362" r="0.5" gradientTransform="matrix(14 0 0 -14 8011 5103.2002)" gradientUnits="userSpaceOnUse">
			<stop  offset="0" style="stop-color:#FFFFFF"/>
			<stop  offset="1" style="stop-color:#F2F2F2;stop-opacity:0.2"/>
		</radialGradient>
		<path id="Ellipse4" class="st4" d="M81,8.1c0-3.9,3.1-7,7-7s7,3.1,7,7s-3.1,7-7,7S81,12,81,8.1z"/>
		<rect x="83" y="5" class="st3" width="10" height="6"/>
	</g>
</g>
<g>
	<path class="st2" d="M13.9,8.6c0.1,0,0.1,0.1,0,0.2L2.6,15.4c-0.1,0-0.2,0-0.2-0.1V2.2c0-0.1,0.1-0.1,0.2-0.1L13.9,8.6z"/>
	<g>
		<path class="st2" d="M7.1,18.6H2.9c-0.1,0-0.1,0.1-0.1,0.1v11.5c0,0.1,0.1,0.1,0.1,0.1h4.3c0.1,0,0.1-0.1,0.1-0.1V18.8
			C7.3,18.7,7.2,18.6,7.1,18.6z"/>
		<path class="st2" d="M13.6,18.6H9.3c-0.1,0-0.1,0.1-0.1,0.1v11.5c0,0.1,0.1,0.1,0.1,0.1h4.3c0.1,0,0.1-0.1,0.1-0.1V18.8
			C13.7,18.7,13.7,18.6,13.6,18.6z"/>
	</g>
</g>
<g id="stop">
	<rect x="115" y="3" class="st2" width="10" height="10"/>
</g>
<g id="chooser">
	<path class="st2" d="M135.2,6.2c1-0.4,2.2,0.1,2.6,1.1c0.4,1-0.1,2.2-1.1,2.6c-1,0.4-2.2-0.1-2.6-1.1S134.2,6.6,135.2,6.2z
		 M133.3,1.4L136,4l2.7-2.6l0.1,3.8l3.8,0.1L140,8l2.6,2.7l-3.8,0.1l-0.1,3.8L136,12l-2.7,2.6l-0.1-3.8l-3.8-0.1L132,8l-2.6-2.7
		l3.8-0.1L133.3,1.4z"/>
</g>
<path class="st0" d="z"/>
<g id="no_x25_20sound_1_">
	<path class="st2" d="M17.4,5h4.3c0.2,0,0.4,0.2,0.4,0.4v5.3c0,0.2-0.2,0.4-0.4,0.4h-4.3c-0.2,0-0.4-0.2-0.4-0.4V5.4
		C17,5.2,17.2,5,17.4,5z"/>
	<path class="st2" d="M21.1,4.9l3.3-2.4c0.2-0.2,0.6,0,0.6,0.3v10.5c0,0.3-0.3,0.5-0.6,0.3l-3.3-2.4c0-0.1-0.1-0.2-0.1-0.3V5.2
		C21,5.1,21.1,5,21.1,4.9z"/>
</g>
<g>
	<g id="no_x25_20sound_2_">
		<path class="st2" d="M17.9,38.3h4.3c0.2,0,0.4,0.2,0.4,0.4V44c0,0.2-0.2,0.4-0.4,0.4h-4.3c-0.2,0-0.4-0.2-0.4-0.4v-5.3
			C17.5,38.5,17.7,38.3,17.9,38.3z"/>
		<path class="st2" d="M21.6,38.2l3.3-2.4c0.2-0.2,0.6,0,0.6,0.3v10.5c0,0.3-0.3,0.5-0.6,0.3l-3.3-2.4c0-0.1-0.1-0.2-0.1-0.3v-5.7
			C21.5,38.4,21.6,38.3,21.6,38.2z"/>
	</g>
	<path class="st5" d="M27.5,39.2c0.6,0.6,0.9,1.3,0.9,2.2c0,0.9-0.4,1.7-1.1,2.3"/>
</g>
<g>
	<g id="no_x25_20sound_4_">
		<path class="st2" d="M17.3,21h4.3c0.2,0,0.4,0.2,0.4,0.4v5.3c0,0.2-0.2,0.4-0.4,0.4h-4.3c-0.2,0-0.4-0.2-0.4-0.4v-5.3
			C16.9,21.1,17.1,21,17.3,21z"/>
		<path class="st2" d="M21,20.9l3.3-2.4c0.2-0.2,0.6,0,0.6,0.3v10.5c0,0.3-0.3,0.5-0.6,0.3L21,27.1c0-0.1-0.1-0.2-0.1-0.3v-5.7
			C20.9,21,21,21,21,20.9z"/>
	</g>
	<path class="st5" d="M28.1,19.6c1.2,1.1,1.9,2.7,1.9,4.4c0,1.8-0.8,3.5-2.1,4.6"/>
	<path class="st5" d="M26.9,21.9c0.6,0.6,0.9,1.3,0.9,2.2s-0.4,1.7-1.1,2.3"/>
</g>
<g>
	<g id="no_x25_20sound_3_">
		<path class="st2" d="M17.4,51.8h4.3c0.2,0,0.4,0.2,0.4,0.4v5.3c0,0.2-0.2,0.4-0.4,0.4h-4.3c-0.2,0-0.4-0.2-0.4-0.4v-5.3
			C17,52,17.2,51.8,17.4,51.8z"/>
		<path class="st2" d="M21.1,51.7l3.3-2.4c0.2-0.2,0.6,0,0.6,0.3v10.5c0,0.3-0.3,0.5-0.6,0.3L21.1,58c0-0.1-0.1-0.2-0.1-0.3V52
			C21,51.9,21.1,51.8,21.1,51.7z"/>
	</g>
	<g>
		<line class="st5" x1="27.5" y1="53.5" x2="29.9" y2="55.8"/>
		<line class="st5" x1="29.9" y1="53.5" x2="27.5" y2="55.8"/>
	</g>
</g>
<g>
	<g>
		<path class="st2" d="M37.3,3.1h-3.8v1.7h3.8V3.1z"/>
		<path class="st2" d="M33.5,3v3.9h1.8V3H33.5z"/>
		<path class="st2" d="M42.7,4.8h3.8V3.1h-3.8V4.8z"/>
		<path class="st2" d="M44.7,3.1V7h1.8V3.1H44.7z"/>
		<path class="st2" d="M37.3,11.2h-3.8v1.8h3.8V11.2z"/>
		<path class="st2" d="M35.4,13.1V9.2h-1.8v3.9H35.4z"/>
		<path class="st2" d="M42.7,13.1h3.8v-1.8h-3.8V13.1z"/>
		<path class="st2" d="M46.5,13.1V9.2h-1.8v3.9H46.5z"/>
	</g>
	<g>
		<path class="st2" d="M33.5,23h3.8v-1.8h-3.8V23z"/>
		<path class="st2" d="M37.3,23v-3.9h-1.8V23H37.3z"/>
		<path class="st2" d="M46.4,21.1h-3.8V23h3.8V21.1z"/>
		<path class="st2" d="M44.5,23v-3.9h-1.8V23H44.5z"/>
		<path class="st2" d="M33.5,27.2h3.8v-1.8h-3.8V27.2z"/>
		<path class="st2" d="M35.6,25.3v3.9h1.8v-3.9H35.6z"/>
		<path class="st2" d="M46.5,25.2h-3.8v1.8h3.8V25.2z"/>
		<path class="st2" d="M42.7,25.2v3.9h1.8v-3.9H42.7z"/>
	</g>
</g>
<g>
	<path class="st2" d="M61.5,3.6H50.5c-0.7,0-1.3,0.6-1.3,1.4v6.1c0,0.8,0.6,1.4,1.3,1.4h11.1c0.7,0,1.3-0.6,1.3-1.4V5
		C62.9,4.2,62.2,3.6,61.5,3.6z M54.2,9c0.3,0,0.6-0.2,0.7-0.4l1,0.5c-0.3,0.6-0.9,1-1.6,1c-1.1,0-1.8-0.9-1.8-1.9
		c0-1.1,0.8-1.9,1.8-1.9c0.7,0,1.3,0.4,1.6,1l-1,0.5c-0.2-0.3-0.4-0.4-0.7-0.4c-0.4,0-0.8,0.4-0.8,0.9S53.7,9,54.2,9z M57.8,9
		c0.3,0,0.6-0.2,0.7-0.4l1,0.5c-0.3,0.6-0.9,1-1.6,1c-1.1,0-1.8-0.9-1.8-1.9c0-1.1,0.8-1.9,1.8-1.9c0.7,0,1.3,0.4,1.6,1l-1,0.5
		c-0.1-0.3-0.4-0.4-0.7-0.4c-0.4,0-0.8,0.4-0.8,0.9S57.4,9,57.8,9z"/>
	<path class="st6" d="M61.4,19.9H50.3c-0.7,0-1.3,0.6-1.3,1.4v6.1c0,0.8,0.6,1.4,1.3,1.4h11.1c0.7,0,1.3-0.6,1.3-1.4v-6.1
		C62.7,20.5,62.1,19.9,61.4,19.9z M54.1,25.3c0.3,0,0.6-0.2,0.7-0.4l1,0.5c-0.3,0.6-0.9,1-1.6,1c-1.1,0-1.8-0.9-1.8-1.9
		c0-1.1,0.8-1.9,1.8-1.9c0.7,0,1.3,0.4,1.6,1l-1,0.5c-0.1-0.3-0.4-0.4-0.7-0.4c-0.4,0-0.8,0.4-0.8,0.9S53.6,25.3,54.1,25.3z
		 M57.7,25.3c0.3,0,0.6-0.2,0.7-0.4l1,0.5c-0.3,0.6-0.9,1-1.6,1c-1.1,0-1.8-0.9-1.8-1.9c0-1.1,0.8-1.9,1.8-1.9c0.7,0,1.3,0.4,1.6,1
		l-1,0.5c-0.1-0.3-0.4-0.4-0.7-0.4c-0.4,0-0.8,0.4-0.8,0.9S57.2,25.3,57.7,25.3z"/>
</g>
<g>
	<g>
		<path class="st2" d="M72,14.7c-3.1,0-5.6-2.5-5.6-5.6c0-0.5,0.3-0.8,0.8-0.8c0.5,0,0.8,0.3,0.8,0.8c0,2.2,1.7,3.9,3.9,3.9
			c2.2,0,3.9-1.7,3.9-3.9S74.1,5.3,72,5.3h-3.1l0,0c-0.5,0-0.8-0.3-0.8-0.8c0-0.5,0.3-0.8,0.8-0.8H72c3.1,0,5.6,2.5,5.6,5.6
			S75.1,14.7,72,14.7z"/>
		<path class="st2" d="M70.3,7.5c-0.2,0-0.5-0.1-0.6-0.2l-2.2-2.2c-0.3-0.3-0.3-0.9,0-1.3l2.2-2.2c0.3-0.3,0.9-0.3,1.3,0
			c0.3,0.3,0.3,0.9,0,1.3l-1.6,1.6L71,6.1c0.3,0.3,0.3,0.9,0,1.3C70.7,7.4,70.5,7.5,70.3,7.5z"/>
	</g>
	<g>
		<path class="st6" d="M72,29.8c-3.1,0-5.6-2.5-5.6-5.6c0-0.5,0.3-0.8,0.8-0.8c0.5,0,0.8,0.3,0.8,0.8c0,2.2,1.7,3.9,3.9,3.9
			c2.2,0,3.9-1.7,3.9-3.9s-1.7-3.9-3.9-3.9h-3.1l0,0c-0.5,0-0.8-0.3-0.8-0.8c0-0.5,0.3-0.8,0.8-0.8h3.1c3.1,0,5.6,2.5,5.6,5.6
			S75.1,29.8,72,29.8z"/>
		<path class="st6" d="M70.3,22.5c-0.2,0-0.5-0.1-0.6-0.2l-2.2-2.2c-0.3-0.3-0.3-0.9,0-1.3l2.2-2.2c0.3-0.3,0.9-0.3,1.3,0
			s0.3,0.9,0,1.3l-1.6,1.6l1.6,1.6c0.3,0.3,0.3,0.9,0,1.3C70.7,22.5,70.5,22.5,70.3,22.5z"/>
	</g>
</g>
</svg>
