<svg id="Layer_1" data-name="Layer 1" xmlns="http://www.w3.org/2000/svg" xmlns:xlink="http://www.w3.org/1999/xlink" viewBox="0 0 1920 400"><defs><style>.cls-1{fill:none;}.cls-2{opacity:0.03;isolation:isolate;}.cls-3{fill:url(#New_Pattern_2);}</style><pattern id="New_Pattern_2" data-name="New Pattern 2" width="316.99" height="209.78" patternUnits="userSpaceOnUse" viewBox="0 0 316.99 209.78"><rect class="cls-1" width="316.99" height="209.78"/><path class="cls-2" d="M275.17,165.3a21.85,21.85,0,0,0,15.4-5.53,17.36,17.36,0,0,1,23.82.6,22.5,22.5,0,0,0,30.29.75,17.23,17.23,0,0,1,23.79.59,22,22,0,0,0,15,6.24h0a2.65,2.65,0,0,0,2.72-2.59,2.75,2.75,0,0,0-2.6-2.71,17.1,17.1,0,0,1-11.8-5.09,22.54,22.54,0,0,0-30.35-.75,17.3,17.3,0,0,1-23.79-.57,22.53,22.53,0,0,0-30.38-.81,17,17,0,0,1-12,4.47h-.07a2.62,2.62,0,0,0-2.65,2.59v.16A2.65,2.65,0,0,0,275.17,165.3Z"/><path class="cls-2" d="M248.65,216.25,262,229.59a2.7,2.7,0,0,0,3.78,0l13.33-13.34a2.65,2.65,0,0,0,0-3.74l-13.33-13.37a2.7,2.7,0,0,0-3.78,0l-13.46,13.43a2.73,2.73,0,0,0-.78,1.87A2.69,2.69,0,0,0,248.65,216.25Zm24.66-1.81-9.55,9.37-9.59-9.37,9.59-9.58Z"/><circle class="cls-2" cx="272.58" cy="122.06" r="2.69"/><path class="cls-2" d="M-41.81,165.3a21.83,21.83,0,0,0,15.39-5.53,17.36,17.36,0,0,1,23.82.6,22,22,0,0,0,15,6.24,22.16,22.16,0,0,0,15.27-5.49,17.23,17.23,0,0,1,23.79.59A22,22,0,0,0,66.53,168h0a2.65,2.65,0,0,0,2.72-2.59,2.75,2.75,0,0,0-2.59-2.71,17.1,17.1,0,0,1-11.81-5.09,22.54,22.54,0,0,0-30.35-.75,17.3,17.3,0,0,1-23.79-.57,22.53,22.53,0,0,0-30.38-.81,17,17,0,0,1-12,4.47h-.06a2.62,2.62,0,0,0-2.66,2.59v.16A2.65,2.65,0,0,0-41.81,165.3Z"/><path class="cls-2" d="M55.69,118.08l-3-3a.56.56,0,0,0-.79,0l-3,3a.56.56,0,0,0,0,.79l3,3a.56.56,0,0,0,.79,0l3-3A.56.56,0,0,0,55.69,118.08Z"/><path class="cls-2" d="M313.33,83.18c1.81,0,2.74,1.22,4.59,4.15s4,6.43,9,6.65,7.49-3.4,9.37-6.24,2.93-4,4.71-4,2.75,1.22,4.59,4.15,4.15,6.59,9,6.65,7.31-3.56,9.18-6.4,2.88-4.09,4.69-4.06,2.74,1.25,4.59,4.19,4.15,6.65,9,6.65h.06a2.63,2.63,0,0,0,2.63-2.62h0v0a2.63,2.63,0,0,0-2.63-2.62c-1.78,0-2.74-1.06-4.59-4.18s-3.78-6.68-8.83-6.75-7.5,3.56-9.37,6.4-2.87,4.1-4.68,4.06S352,87.86,350.11,85s-4.13-6.59-9-6.65-7.33,3.62-9.21,6.43-2.87,4.06-4.68,4-2.78-1.22-4.62-4.15-4.12-6.65-9-6.65h0a2.65,2.65,0,0,0-2.68,2.62h0A2.66,2.66,0,0,0,313.33,83.18Z"/><path class="cls-2" d="M248.65,6.47,262,19.81a2.7,2.7,0,0,0,3.78,0L279.09,6.47a2.65,2.65,0,0,0,0-3.74L265.76-10.64a2.7,2.7,0,0,0-3.78,0L248.52,2.79a2.73,2.73,0,0,0-.78,1.87A2.69,2.69,0,0,0,248.65,6.47Zm24.66-1.81L263.76,14l-9.59-9.37,9.59-9.58Z"/><circle class="cls-2" cx="282.55" cy="61.23" r="2.69"/><path class="cls-2" d="M116.68,60.41a21.83,21.83,0,0,0,15.39-5.53,17.37,17.37,0,0,1,23.83.6,22.48,22.48,0,0,0,30.28.75,17.24,17.24,0,0,1,23.8.59,22,22,0,0,0,15,6.24h0a2.64,2.64,0,0,0,2.71-2.59,2.74,2.74,0,0,0-2.59-2.71,17.08,17.08,0,0,1-11.8-5.09A22.54,22.54,0,0,0,183,51.92a17.29,17.29,0,0,1-23.79-.57,22.53,22.53,0,0,0-30.38-.81,17.07,17.07,0,0,1-12,4.47h-.06a2.61,2.61,0,0,0-2.65,2.59v.16A2.65,2.65,0,0,0,116.68,60.41Z"/><path class="cls-2" d="M154.83,188.07c1.81,0,2.75,1.22,4.59,4.15s4,6.43,9,6.65,7.5-3.4,9.37-6.24,2.94-4,4.72-4,2.74,1.22,4.59,4.15,4.15,6.59,9,6.65,7.31-3.56,9.18-6.4,2.87-4.09,4.68-4.06,2.75,1.25,4.59,4.19,4.16,6.65,9,6.65h.06a2.62,2.62,0,0,0,2.62-2.62h0v0a2.62,2.62,0,0,0-2.62-2.62c-1.78,0-2.75-1.06-4.59-4.18s-3.78-6.68-8.84-6.75-7.49,3.56-9.36,6.4S198,194.06,196.2,194s-2.75-1.28-4.59-4.18-4.12-6.59-9-6.65-7.34,3.62-9.21,6.43-2.87,4.06-4.69,4-2.77-1.22-4.62-4.15-4.12-6.65-9-6.65h0a2.65,2.65,0,0,0-2.69,2.62h0A2.66,2.66,0,0,0,154.83,188.07Z"/><path class="cls-2" d="M170.28,130.89a19,19,0,1,0,19.05-19,19.05,19.05,0,0,0-19.05,19Zm19.05,12.37h0a12.38,12.38,0,1,1,12.38-12.37A12.37,12.37,0,0,1,189.33,143.26Z"/><path class="cls-2" d="M90.15,111.36l13.33,13.34a2.7,2.7,0,0,0,3.78,0l13.34-13.34a2.65,2.65,0,0,0,0-3.74L107.26,94.25a2.7,2.7,0,0,0-3.78,0L90,107.68a2.64,2.64,0,0,0-.78,1.87A2.68,2.68,0,0,0,90.15,111.36Zm24.67-1.81-9.56,9.37-9.58-9.37,9.58-9.58Z"/><circle class="cls-2" cx="114.09" cy="17.17" r="2.69"/><circle class="cls-2" cx="124.05" cy="166.12" r="2.69"/><path class="cls-2" d="M214.18,13.19l-3-3a.59.59,0,0,0-.8,0l-3,3a.56.56,0,0,0,0,.79l3,3a.57.57,0,0,0,.8,0l3-3A.56.56,0,0,0,214.18,13.19Z"/><path class="cls-2" d="M-3.66,83.18c1.81,0,2.74,1.22,4.59,4.15s4,6.43,9,6.65,7.49-3.4,9.37-6.24,2.93-4,4.71-4,2.75,1.22,4.59,4.15,4.15,6.59,9,6.65S45,91,46.83,88.11,49.7,84,51.51,84.05s2.75,1.25,4.59,4.19,4.15,6.65,9,6.65h.07a2.63,2.63,0,0,0,2.62-2.62h0v0a2.63,2.63,0,0,0-2.63-2.62c-1.78,0-2.74-1.06-4.59-4.18s-3.77-6.68-8.83-6.75-7.5,3.56-9.37,6.4-2.87,4.1-4.68,4.06S35,87.86,33.12,85s-4.12-6.59-9-6.65-7.33,3.62-9.21,6.43-2.87,4.06-4.68,4-2.78-1.22-4.62-4.15S1.46,78-3.44,78h0a2.65,2.65,0,0,0-2.69,2.62h0A2.66,2.66,0,0,0-3.66,83.18Z"/><path class="cls-2" d="M11.79,26A19.05,19.05,0,1,0,30.84,7,19.05,19.05,0,0,0,11.79,26ZM30.84,38.37h0A12.38,12.38,0,1,1,43.21,26,12.37,12.37,0,0,1,30.84,38.37Z"/></pattern></defs><rect class="cls-3" width="1920" height="400"/></svg>