<svg id="Layer_1" data-name="Layer 1" xmlns="http://www.w3.org/2000/svg" xmlns:xlink="http://www.w3.org/1999/xlink" viewBox="0 0 1920 400"><defs><style>.cls-1{fill:none;}.cls-2{opacity:0.03;isolation:isolate;}.cls-3{fill:url(#New_Pattern_3);}</style><pattern id="New_Pattern_3" data-name="New Pattern 3" width="194.56" height="230.07" patternTransform="translate(0 0.44)" patternUnits="userSpaceOnUse" viewBox="0 0 194.56 230.07"><rect class="cls-1" width="194.56" height="230.07"/><path class="cls-2" d="M82.22,45.09a21.9,21.9,0,0,0,14.79,7,17.35,17.35,0,0,1,16.43,17.26,22.47,22.47,0,0,0,20.89,22,17.22,17.22,0,0,1,16.4,17.24A22,22,0,0,0,157,123.58h0a2.65,2.65,0,0,0,3.75.09,2.76,2.76,0,0,0,.09-3.76A17,17,0,0,1,156.05,108a22.54,22.54,0,0,0-20.93-22,17.3,17.3,0,0,1-16.43-17.22A22.5,22.5,0,0,0,97.79,46.7a17,17,0,0,1-11.66-5.34l0,0a2.62,2.62,0,0,0-3.7,0l-.11.11A2.66,2.66,0,0,0,82.22,45.09Z"/><path class="cls-2" d="M18.93,162.34c1.26,1.3,1.08,2.8.31,6.18s-1.75,7.35,1.68,11.08,7.7,2.89,11,2.21,4.92-.77,6.18.49,1.08,2.8.31,6.18-1.73,7.59,1.67,11.08,7.69,2.65,11,2,4.93-.87,6.18.44,1.06,2.82.29,6.2-1.77,7.64,1.68,11.08l0,.05a2.63,2.63,0,0,0,3.71,0h0l0,0a2.61,2.61,0,0,0,0-3.71c-1.23-1.28-1.19-2.7-.28-6.21s2-7.39-1.48-11-7.82-2.79-11.15-2.1-4.93.86-6.18-.44-1-2.85-.29-6.21S45.42,182,42,178.52s-7.75-2.63-11.06-2-4.9.83-6.16-.47-1.1-2.82-.33-6.2,1.79-7.62-1.68-11.09h0a2.66,2.66,0,0,0-3.75,0h0A2.66,2.66,0,0,0,18.93,162.34Z"/><path class="cls-2" d="M70.29,132.83a19,19,0,1,0,26.94,0,19,19,0,0,0-26.94,0ZM75,155.05h0a12.37,12.37,0,1,1,17.5,0A12.38,12.38,0,0,1,75,155.05Z"/><path class="cls-2" d="M27.43,62.36V81.22a2.69,2.69,0,0,0,2.68,2.67H49a2.65,2.65,0,0,0,2.65-2.65l0-18.88A2.69,2.69,0,0,0,49,59.69l-19,0a2.7,2.7,0,0,0-1.88.77A2.75,2.75,0,0,0,27.43,62.36ZM46.16,78.52l-13.38-.13L32.62,65H46.18Z"/><circle class="cls-2" cx="110.96" cy="12.69" r="2.69"/><circle class="cls-2" cx="12.69" cy="125.06" r="2.69"/><rect class="cls-2" x="179.15" y="75.81" width="5.4" height="5.4" rx="0.56"/></pattern></defs><rect class="cls-3" width="1920" height="400"/></svg>