<svg id="Layer_1" data-name="Layer 1" xmlns="http://www.w3.org/2000/svg" xmlns:xlink="http://www.w3.org/1999/xlink" viewBox="0 0 1920 400"><defs><style>.cls-1{fill:none;}.cls-2{opacity:0.03;isolation:isolate;}.cls-3{fill:url(#New_Pattern);}</style><pattern id="New_Pattern" data-name="New Pattern" width="209.78" height="316.99" patternTransform="translate(0 -103.01)" patternUnits="userSpaceOnUse" viewBox="0 0 209.78 316.99"><rect class="cls-1" width="209.78" height="316.99"/><path class="cls-2" d="M165.3,358.8a21.83,21.83,0,0,0-5.53-15.39,17.36,17.36,0,0,1,.6-23.82,22.5,22.5,0,0,0,.75-30.29,17.23,17.23,0,0,1,.59-23.79,22,22,0,0,0,6.24-15h0a2.65,2.65,0,0,0-2.59-2.72,2.75,2.75,0,0,0-2.71,2.59,17.1,17.1,0,0,1-5.09,11.81,22.53,22.53,0,0,0-.75,30.34,17.31,17.31,0,0,1-.57,23.8,22.53,22.53,0,0,0-.81,30.38,17,17,0,0,1,4.47,12v.06a2.61,2.61,0,0,0,2.59,2.65h.16A2.65,2.65,0,0,0,165.3,358.8Z"/><path class="cls-2" d="M118.08,261.3l-3,3a.56.56,0,0,0,0,.79l3,3a.56.56,0,0,0,.79,0l3-3a.56.56,0,0,0,0-.79l-3-3A.56.56,0,0,0,118.08,261.3Z"/><path class="cls-2" d="M83.18,320.65c0-1.81,1.22-2.75,4.15-4.59s6.43-4,6.65-9-3.4-7.5-6.24-9.37-4-2.93-4-4.71,1.22-2.75,4.15-4.59,6.59-4.16,6.65-9-3.56-7.3-6.4-9.18-4.09-2.87-4.06-4.68,1.25-2.75,4.19-4.59,6.65-4.15,6.65-9v-.07a2.62,2.62,0,0,0-2.62-2.62h0a2.63,2.63,0,0,0-2.62,2.62c0,1.78-1.06,2.75-4.18,4.59s-6.68,3.78-6.75,8.84,3.56,7.49,6.4,9.37,4.09,2.87,4.06,4.68S87.86,282,85,283.87s-6.59,4.12-6.65,9,3.62,7.34,6.43,9.21,4.06,2.88,4,4.69-1.22,2.78-4.15,4.62-6.65,4.12-6.65,9h0a2.65,2.65,0,0,0,2.62,2.69h0A2.66,2.66,0,0,0,83.18,320.65Z"/><path class="cls-2" d="M26,305.2A19.05,19.05,0,1,0,7,286.15,19.05,19.05,0,0,0,26,305.2Zm12.37-19.05h0A12.38,12.38,0,1,1,26,273.78,12.37,12.37,0,0,1,38.37,286.15Z"/><path class="cls-2" d="M60.41,200.31a21.83,21.83,0,0,0-5.53-15.39,17.37,17.37,0,0,1,.6-23.83,22.48,22.48,0,0,0,.75-30.28,17.24,17.24,0,0,1,.59-23.8A22,22,0,0,0,63.06,92h0a2.64,2.64,0,0,0-2.59-2.71,2.74,2.74,0,0,0-2.71,2.59,17.08,17.08,0,0,1-5.09,11.8A22.54,22.54,0,0,0,51.92,134a17.3,17.3,0,0,1-.57,23.79,22.53,22.53,0,0,0-.81,30.38,17,17,0,0,1,4.47,12v.07a2.62,2.62,0,0,0,2.59,2.65h.16A2.65,2.65,0,0,0,60.41,200.31Z"/><path class="cls-2" d="M188.07,162.16c0-1.81,1.22-2.75,4.15-4.59s6.43-4,6.65-9-3.4-7.49-6.24-9.36-4-2.94-4-4.72,1.22-2.75,4.15-4.59,6.59-4.15,6.65-9-3.56-7.31-6.4-9.18-4.09-2.87-4.06-4.68,1.25-2.75,4.19-4.59,6.65-4.16,6.65-9v-.06a2.62,2.62,0,0,0-2.62-2.62h0a2.62,2.62,0,0,0-2.62,2.62c0,1.78-1.06,2.75-4.18,4.59s-6.68,3.78-6.75,8.84,3.56,7.49,6.4,9.36,4.09,2.88,4.06,4.69-1.28,2.74-4.18,4.59-6.59,4.12-6.65,9,3.62,7.34,6.43,9.21,4.06,2.87,4,4.68-1.22,2.78-4.15,4.63-6.65,4.12-6.65,9h0a2.64,2.64,0,0,0,2.62,2.68h0A2.65,2.65,0,0,0,188.07,162.16Z"/><path class="cls-2" d="M130.89,146.7a19,19,0,1,0-19-19,19,19,0,0,0,19,19Zm12.37-19h0a12.38,12.38,0,1,1-12.37-12.38A12.37,12.37,0,0,1,143.26,127.66Z"/><path class="cls-2" d="M111.36,226.84,124.7,213.5a2.69,2.69,0,0,0,0-3.77l-13.34-13.34a2.65,2.65,0,0,0-3.74,0L94.25,209.73a2.69,2.69,0,0,0,0,3.77L107.68,227a2.64,2.64,0,0,0,1.87.78A2.72,2.72,0,0,0,111.36,226.84Zm-1.81-24.67,9.37,9.55-9.37,9.59L100,211.72Z"/><circle class="cls-2" cx="17.17" cy="202.9" r="2.69"/><circle class="cls-2" cx="166.12" cy="192.93" r="2.69"/><path class="cls-2" d="M13.19,102.81l-3,3a.59.59,0,0,0,0,.8l3,3a.56.56,0,0,0,.79,0l3-3a.57.57,0,0,0,0-.8l-3-3A.56.56,0,0,0,13.19,102.81Z"/><path class="cls-2" d="M165.3,41.81a21.83,21.83,0,0,0-5.53-15.39,17.36,17.36,0,0,1,.6-23.82,22,22,0,0,0,6.24-15,22.16,22.16,0,0,0-5.49-15.27,17.23,17.23,0,0,1,.59-23.79A22,22,0,0,0,168-66.53h0a2.65,2.65,0,0,0-2.59-2.72,2.75,2.75,0,0,0-2.71,2.59,17.1,17.1,0,0,1-5.09,11.81,22.54,22.54,0,0,0-.75,30.35,17.3,17.3,0,0,1-.57,23.79,22.53,22.53,0,0,0-.81,30.38,17,17,0,0,1,4.47,12v.06a2.62,2.62,0,0,0,2.59,2.66h.16A2.65,2.65,0,0,0,165.3,41.81Z"/><path class="cls-2" d="M216.25,68.34,229.59,55a2.7,2.7,0,0,0,0-3.78L216.25,37.9a2.65,2.65,0,0,0-3.74,0L199.14,51.23a2.7,2.7,0,0,0,0,3.78l13.43,13.46a2.73,2.73,0,0,0,1.87.78A2.69,2.69,0,0,0,216.25,68.34Zm-1.81-24.66,9.37,9.55-9.37,9.59-9.58-9.59Z"/><circle class="cls-2" cx="122.06" cy="44.41" r="2.69"/><path class="cls-2" d="M83.18,3.66c0-1.81,1.22-2.74,4.15-4.59s6.43-4,6.65-9-3.4-7.49-6.24-9.37-4-2.93-4-4.71,1.22-2.75,4.15-4.59,6.59-4.15,6.65-9-3.56-7.3-6.4-9.18S84-49.7,84.05-51.51s1.25-2.75,4.19-4.59,6.65-4.15,6.65-9v-.07a2.63,2.63,0,0,0-2.62-2.62h0a2.63,2.63,0,0,0-2.62,2.63c0,1.78-1.06,2.74-4.18,4.59s-6.68,3.77-6.75,8.83,3.56,7.5,6.4,9.37,4.09,2.87,4.06,4.68S87.86-35,85-33.12s-6.59,4.12-6.65,9,3.62,7.33,6.43,9.21,4.06,2.87,4,4.68-1.22,2.78-4.15,4.62S78-1.46,78,3.44h0a2.65,2.65,0,0,0,2.62,2.69h0A2.66,2.66,0,0,0,83.18,3.66Z"/><path class="cls-2" d="M6.47,68.34,19.81,55a2.7,2.7,0,0,0,0-3.78L6.47,37.9a2.65,2.65,0,0,0-3.74,0L-10.64,51.23a2.7,2.7,0,0,0,0,3.78L2.79,68.47a2.73,2.73,0,0,0,1.87.78A2.69,2.69,0,0,0,6.47,68.34ZM4.66,43.68,14,53.23,4.66,62.82l-9.58-9.59Z"/><circle class="cls-2" cx="61.23" cy="34.44" r="2.69"/></pattern></defs><rect class="cls-3" width="1920" height="400"/></svg>